<?xml version="1.0" encoding="utf-8"?>
<!-- Generator: Adobe Illustrator 21.1.0, SVG Export Plug-In . SVG Version: 6.00 Build 0)  -->
<svg version="1.1" id="Layer_1" xmlns="http://www.w3.org/2000/svg" xmlns:xlink="http://www.w3.org/1999/xlink" x="0px" y="0px"
	 viewBox="0 0 41.3 38.3" style="enable-background:new 0 0 41.3 38.3;" xml:space="preserve">
<style type="text/css">
	.st0{fill:#FFFFFF;}
</style>
<path class="st0" d="M40.3,0h-38c-0.6,0-1,0.4-1,1v29c0,0.6,0.4,1,1,1h13.9l4.3,6.8c0.2,0.3,0.5,0.5,0.8,0.5c0,0,0,0,0,0
	c0.3,0,0.7-0.2,0.8-0.5l4.3-6.8h13.9c0.6,0,1-0.4,1-1V1C41.3,0.4,40.8,0,40.3,0z M39.3,29H25.8c-0.3,0-0.7,0.2-0.8,0.5l-3.7,5.9
	l-3.7-5.9C17.4,29.2,17,29,16.7,29H3.3V2h36V29z M21,27.6c6.4,0,11.6-5.2,11.6-11.6S27.3,4.4,21,4.4C14.6,4.4,9.4,9.6,9.4,16
	S14.6,27.6,21,27.6z M13.2,21.6h1.7c0.3,1,0.7,1.8,1.2,2.6C14.9,23.6,14,22.7,13.2,21.6z M11.4,16c0-1.3,0.3-2.5,0.7-3.6h2.3
	C14.1,13.5,14,14.7,14,16c0,1.3,0.1,2.5,0.3,3.6h-2.3C11.6,18.5,11.4,17.3,11.4,16z M30.6,16c0,1.3-0.3,2.5-0.7,3.6h-2.3
	c0.2-1.1,0.3-2.4,0.3-3.6c0-1.3-0.1-2.5-0.3-3.6h2.3C30.3,13.5,30.6,14.7,30.6,16z M25.9,16c0,1.3-0.1,2.5-0.4,3.6H22v-7.3h3.6
	C25.8,13.5,25.9,14.7,25.9,16z M20,25.3c-1.2-0.5-2.2-1.8-3-3.7h3V25.3z M22,25.3v-3.7h3C24.2,23.5,23.1,24.8,22,25.3z M22,10.3V6.7
	c1.2,0.5,2.2,1.8,3,3.7H22z M20,6.7v3.7h-3C17.7,8.5,18.8,7.2,20,6.7z M20,12.3v7.3h-3.6C16.1,18.5,16,17.3,16,16
	c0-1.3,0.1-2.5,0.4-3.6H20z M25.9,24.2c0.5-0.8,0.9-1.6,1.2-2.6h1.7C27.9,22.7,27,23.6,25.9,24.2z M28.7,10.3H27
	c-0.3-1-0.7-1.8-1.2-2.6C27,8.4,27.9,9.3,28.7,10.3z M16,7.7c-0.5,0.8-0.9,1.6-1.2,2.6h-1.7C14,9.3,14.9,8.4,16,7.7z"/>
</svg>
